# xmcd
#
# Track frame offsets:
#	150
#	13863
#	29895
#	55334
#	70126
#	91151
#	115421
#	130427
#	148924
#	156096
#	175128
#	193254
#	207501
#
# Disc length: 3107 seconds
#
# Revision: 1
# Processed by: cddbd v1.5.1PL2 Copyright (c) Steve Scherf et al.
# Submitted via: audiograbber 1.83.01
#
DISCID=cb0c210d
DTITLE=NEMANJA NESIC - Samo da si tu
DYEAR=2005
DGENRE=Pop
TTITLE0=Dok spava grad
TTITLE1=Drugu, umesto pisma
TTITLE2=Pusta ulica
TTITLE3=Letnji dani
TTITLE4=Kao iz starih filmova
TTITLE5=Prica o njemu i njoj
TTITLE6=Oblak
TTITLE7=Tajna
TTITLE8=(...)
TTITLE9=Samo da si tu
TTITLE10=Jabuke
TTITLE11=Dolazi ljubavi
TTITLE12=,,Pavana" u mislima
EXTD=
EXTT0=
EXTT1=
EXTT2=
EXTT3=
EXTT4=
EXTT5=
EXTT6=
EXTT7=
EXTT8=
EXTT9=
EXTT10=
EXTT11=
EXTT12=
PLAYORDER=
